<?xml version="1.0" standalone="no"?>
<!DOCTYPE svg PUBLIC "-//W3C//DTD SVG 20010904//EN"
 "http://www.w3.org/TR/2001/REC-SVG-20010904/DTD/svg10.dtd">
<svg version="1.0" xmlns="http://www.w3.org/2000/svg"
 width="2048.000000pt" height="2048.000000pt" viewBox="0 0 2048.000000 2048.000000"
 preserveAspectRatio="xMidYMid meet">

<g transform="translate(0.000000,2048.000000) scale(0.100000,-0.100000)"
fill="#000000" stroke="none">
<path d="M4120 20216 c-30 -7 -68 -20 -85 -28 -43 -23 -101 -86 -122 -133 -17
-38 -18 -276 -18 -5785 l0 -5745 -54 -85 c-30 -47 -145 -224 -256 -395 -111
-170 -284 -438 -386 -595 -101 -156 -246 -379 -321 -495 -75 -115 -218 -336
-318 -490 -100 -154 -242 -372 -315 -485 -73 -113 -192 -295 -263 -405 -71
-110 -228 -351 -347 -535 -286 -440 -563 -866 -799 -1230 l-191 -295 -6 920
c-3 506 -7 3847 -9 7425 -1 3578 -5 6809 -9 7180 -7 734 -2 680 -64 762 -61
81 -203 116 -309 75 -58 -23 -139 -108 -156 -164 -13 -44 -15 -8447 -3 -14223
l6 -2965 23 -42 c75 -141 236 -198 372 -131 31 15 67 40 82 55 14 15 173 255
353 533 364 562 499 770 775 1195 104 160 270 416 370 570 100 154 242 372
315 485 73 113 215 331 315 485 207 319 483 744 746 1150 100 154 238 367 307
473 69 106 129 193 134 193 4 -1 10 -1573 13 -3493 l5 -3493 24 -45 c49 -94
119 -159 192 -181 47 -14 7437 -33 7569 -19 52 5 149 14 215 20 693 64 1449
226 2105 451 80 28 165 57 190 66 213 73 614 245 905 389 1926 949 3471 2548
4387 4544 284 617 535 1372 672 2015 9 44 21 98 26 120 15 66 67 352 85 465 8
58 20 132 25 165 102 659 127 1560 64 2310 -38 462 -103 889 -214 1410 -57
265 -205 792 -309 1095 -287 844 -677 1644 -1159 2380 -504 770 -1047 1403
-1772 2065 -25 22 -106 93 -180 156 -1190 1017 -2616 1750 -4090 2104 -58 14
-132 33 -165 41 -141 37 -178 45 -320 68 -82 14 -256 32 -385 41 -129 9 -266
20 -305 25 -72 10 -1175 15 -4960 25 -1199 3 -2214 7 -2255 9 -41 3 -100 -1
-130 -8z m4450 -557 c1466 -5 2746 -14 2846 -19 382 -19 765 -75 1128 -165
2380 -588 4478 -2137 5811 -4290 236 -381 477 -839 645 -1227 39 -89 75 -172
80 -183 93 -208 291 -766 371 -1045 201 -701 315 -1321 375 -2045 21 -261 30
-951 15 -1230 -27 -507 -79 -928 -175 -1420 -26 -136 -84 -391 -117 -515 -42
-159 -60 -226 -69 -250 -5 -14 -18 -59 -30 -100 -60 -207 -180 -551 -278 -795
-515 -1294 -1353 -2494 -2362 -3387 -770 -681 -1640 -1220 -2545 -1578 -71
-28 -146 -58 -165 -65 -77 -31 -264 -96 -415 -145 -665 -215 -1441 -361 -2075
-390 -299 -14 -7151 0 -7155 14 -2 6 -6 1697 -10 3758 -6 3689 -6 3747 13
3790 10 24 124 205 253 403 129 198 266 408 304 468 39 59 150 230 247 380
179 275 293 451 641 987 106 163 296 455 422 650 127 195 395 609 597 920 201
311 429 661 505 778 76 117 158 244 183 282 25 38 83 129 130 200 121 186 161
248 285 440 61 93 114 170 119 170 5 0 6 -612 2 -1512 -14 -3265 -28 -8266
-23 -8314 9 -89 62 -164 150 -211 37 -20 164 -27 687 -39 2103 -46 4050 688
5397 2034 1115 1115 1722 2572 1723 4137 0 585 -80 1156 -241 1720 -12 39 -25
86 -30 105 -50 176 -202 587 -294 790 -398 886 -930 1642 -1656 2355 -233 229
-393 371 -633 563 -196 157 -236 181 -310 189 -212 22 -367 -204 -270 -393 24
-48 47 -72 144 -147 1176 -916 2018 -2078 2451 -3378 129 -388 212 -776 266
-1239 23 -196 26 -874 5 -1065 -40 -362 -103 -689 -186 -970 -8 -27 -20 -68
-26 -90 -6 -22 -15 -51 -20 -65 -5 -14 -23 -65 -40 -115 -99 -282 -263 -640
-402 -880 -263 -452 -543 -812 -919 -1180 -139 -136 -209 -199 -407 -367 -79
-66 -303 -228 -462 -333 -565 -375 -1166 -648 -1860 -846 -337 -97 -746 -179
-1105 -223 -346 -43 -484 -50 -947 -51 -251 0 -460 3 -464 8 -4 4 0 2353 10
5220 13 3881 15 5223 7 5254 -35 128 -181 220 -309 194 -72 -14 -149 -50 -195
-90 -20 -18 -96 -124 -169 -237 -194 -298 -482 -741 -678 -1044 -95 -146 -236
-364 -315 -485 -79 -121 -226 -348 -328 -505 -102 -157 -287 -442 -412 -635
-125 -192 -311 -478 -412 -635 -101 -157 -269 -415 -373 -575 -160 -245 -426
-656 -600 -925 -46 -71 -127 -196 -325 -500 -63 -96 -119 -176 -124 -178 -8
-3 -11 1509 -11 5136 0 3532 3 5141 10 5144 6 2 336 2 733 0 397 -1 1921 -7
3387 -13z"/>
</g>
</svg>
