<svg xmlns="http://www.w3.org/2000/svg" aria-hidden="true" fill="currentColor" width="750" height="137" viewBox="0 0 750 137">
  <path id="katakana-project" d="M 345.901 108.001 L 247.351 108.001 L 247.351 0.001 L 345.901 0.001 L 345.901 12.151 L 259.501 12.151 L 259.501 47.851 L 328.951 47.851 L 328.951 60.151 L 259.501 60.151 L 259.501 95.851 L 345.901 95.851 L 345.901 108.001 Z M 700.051 108.001 L 601.501 108.001 L 601.501 0.001 L 700.051 0.001 L 700.051 12.151 L 613.651 12.151 L 613.651 47.851 L 683.101 47.851 L 683.101 60.151 L 613.651 60.151 L 613.651 95.851 L 700.051 95.851 L 700.051 108.001 Z M 107.701 108.001 L 18.001 108.001 Q 13.051 108.001 8.926 105.601 Q 4.801 103.201 2.401 99.076 Q 0.001 94.951 0.001 90.001 L 0.001 18.001 Q 0.001 13.051 2.401 8.926 Q 4.801 4.801 8.926 2.401 Q 13.051 0.001 18.001 0.001 L 107.701 0.001 L 107.701 12.151 L 18.001 12.151 A 5.62 5.62 0 0 0 13.93 13.822 A 6.963 6.963 0 0 0 13.876 13.876 A 5.772 5.772 0 0 0 12.438 16.154 A 5.833 5.833 0 0 0 12.151 18.001 L 12.151 90.001 A 5.62 5.62 0 0 0 13.822 94.072 A 6.963 6.963 0 0 0 13.876 94.126 A 5.772 5.772 0 0 0 16.154 95.563 A 5.833 5.833 0 0 0 18.001 95.851 L 107.701 95.851 L 107.701 108.001 Z M 362.251 108.001 L 362.251 18.001 Q 362.251 13.051 364.651 8.926 Q 367.051 4.801 371.176 2.401 Q 375.301 0.001 380.251 0.001 L 452.251 0.001 Q 457.201 0.001 461.326 2.401 Q 465.451 4.801 467.851 8.926 Q 470.251 13.051 470.251 18.001 L 470.251 108.001 L 458.101 108.001 L 458.101 68.551 L 374.401 68.551 L 374.401 108.001 L 362.251 108.001 Z M 542.101 108.001 L 529.951 108.001 L 529.951 12.151 L 481.951 12.151 L 481.951 0.001 L 589.951 0.001 L 589.951 12.151 L 542.101 12.151 L 542.101 108.001 Z M 135.451 108.001 L 123.301 108.001 L 123.301 0.151 L 213.301 0.151 Q 218.251 0.151 222.376 2.626 Q 226.501 5.101 228.901 9.151 Q 231.301 13.201 231.301 18.151 L 231.301 49.801 Q 231.301 54.751 228.901 58.801 Q 226.501 62.851 222.376 65.326 Q 218.251 67.801 213.301 67.801 L 135.451 67.801 L 135.451 108.001 Z M 374.401 56.401 L 458.101 56.401 L 458.101 18.001 A 5.62 5.62 0 0 0 456.429 13.93 A 6.963 6.963 0 0 0 456.376 13.876 A 5.772 5.772 0 0 0 454.098 12.438 A 5.833 5.833 0 0 0 452.251 12.151 L 380.251 12.151 A 5.62 5.62 0 0 0 376.18 13.822 A 6.963 6.963 0 0 0 376.126 13.876 A 5.772 5.772 0 0 0 374.688 16.154 A 5.833 5.833 0 0 0 374.401 18.001 L 374.401 56.401 Z M 141.301 55.501 L 213.301 55.501 Q 215.701 55.501 217.426 53.851 A 5.372 5.372 0 0 0 219.149 49.95 A 6.583 6.583 0 0 0 219.151 49.801 L 219.151 18.151 A 5.62 5.62 0 0 0 217.479 14.08 A 6.963 6.963 0 0 0 217.426 14.026 A 5.772 5.772 0 0 0 215.148 12.588 A 5.833 5.833 0 0 0 213.301 12.301 L 141.301 12.301 A 5.62 5.62 0 0 0 137.23 13.972 A 6.963 6.963 0 0 0 137.176 14.026 A 5.772 5.772 0 0 0 135.738 16.304 A 5.833 5.833 0 0 0 135.451 18.151 L 135.451 49.801 A 5.375 5.375 0 0 0 137.07 53.747 A 6.478 6.478 0 0 0 137.176 53.851 Q 138.901 55.501 141.301 55.501 Z M 230.551 108.001 L 214.501 108.001 L 179.251 66.001 L 195.151 66.001 L 230.551 107.851 L 230.551 108.001 Z" />
</svg>
