<svg xmlns="http://www.w3.org/2000/svg" aria-hidden="true" fill="currentColor" width="135" height="765" viewBox="0 0 135 765">
  <path id="katakana-profile" d="M 85.41 93.73 L 0 93.73 L 0 0.13 L 85.41 0.13 L 85.41 10.66 L 10.53 10.66 L 10.53 41.6 L 70.72 41.6 L 70.72 52.26 L 10.53 52.26 L 10.53 83.2 L 85.41 83.2 L 85.41 93.73 Z M 709.54 93.73 L 624.13 93.73 L 624.13 0.13 L 709.54 0.13 L 709.54 10.66 L 634.66 10.66 L 634.66 41.6 L 694.85 41.6 L 694.85 52.26 L 634.66 52.26 L 634.66 83.2 L 709.54 83.2 L 709.54 93.73 Z M 111.54 93.73 L 98.02 93.73 L 98.02 93.6 L 137.28 46.93 L 98.02 0.26 L 98.02 0.13 L 111.54 0.13 L 144.17 38.74 L 176.67 0.13 L 190.19 0.13 L 190.19 0.26 L 150.93 46.93 L 190.32 93.6 L 190.32 93.73 L 176.67 93.73 L 144.17 55.12 L 111.54 93.73 Z M 401.44 93.73 L 307.84 93.73 L 307.84 0 L 318.37 0 L 318.37 83.2 L 401.44 83.2 L 401.44 93.73 Z M 215.41 93.73 L 204.88 93.73 L 204.88 0.26 L 282.88 0.26 Q 287.17 0.26 290.745 2.405 Q 294.32 4.55 296.4 8.06 Q 298.48 11.57 298.48 15.86 L 298.48 43.29 Q 298.48 47.58 296.4 51.09 Q 294.32 54.6 290.745 56.745 Q 287.17 58.89 282.88 58.89 L 215.41 58.89 L 215.41 93.73 Z M 527.15 93.73 L 516.62 93.73 L 516.62 0.26 L 594.62 0.26 Q 598.91 0.26 602.485 2.405 Q 606.06 4.55 608.14 8.06 Q 610.22 11.57 610.22 15.86 L 610.22 43.29 Q 610.22 47.58 608.14 51.09 Q 606.06 54.6 602.485 56.745 Q 598.91 58.89 594.62 58.89 L 527.15 58.89 L 527.15 93.73 Z M 486.72 93.73 L 424.32 93.73 Q 420.03 93.73 416.455 91.65 Q 412.88 89.57 410.8 85.995 Q 408.72 82.42 408.72 78.13 L 408.72 15.73 Q 408.72 11.44 410.8 7.865 Q 412.88 4.29 416.455 2.21 Q 420.03 0.13 424.32 0.13 L 486.72 0.13 Q 491.01 0.13 494.585 2.21 Q 498.16 4.29 500.24 7.865 Q 502.32 11.44 502.32 15.73 L 502.32 78.13 Q 502.32 82.42 500.24 85.995 Q 498.16 89.57 494.585 91.65 Q 491.01 93.73 486.72 93.73 Z M 424.32 83.2 L 486.72 83.2 A 4.87 4.87 0 0 0 490.248 81.751 A 6.033 6.033 0 0 0 490.295 81.705 A 5.002 5.002 0 0 0 491.541 79.731 A 5.055 5.055 0 0 0 491.79 78.13 L 491.79 15.73 A 4.87 4.87 0 0 0 490.341 12.202 A 6.033 6.033 0 0 0 490.295 12.155 A 5.002 5.002 0 0 0 488.321 10.909 A 5.055 5.055 0 0 0 486.72 10.66 L 424.32 10.66 A 4.87 4.87 0 0 0 420.792 12.109 A 6.033 6.033 0 0 0 420.745 12.155 A 5.002 5.002 0 0 0 419.499 14.129 A 5.055 5.055 0 0 0 419.25 15.73 L 419.25 78.13 A 4.87 4.87 0 0 0 420.699 81.658 A 6.033 6.033 0 0 0 420.745 81.705 A 5.002 5.002 0 0 0 422.719 82.951 A 5.055 5.055 0 0 0 424.32 83.2 Z M 220.48 48.23 L 282.88 48.23 Q 284.96 48.23 286.455 46.8 Q 287.95 45.37 287.95 43.29 L 287.95 15.86 A 4.87 4.87 0 0 0 286.501 12.332 A 6.033 6.033 0 0 0 286.455 12.285 A 5.002 5.002 0 0 0 284.481 11.039 A 5.055 5.055 0 0 0 282.88 10.79 L 220.48 10.79 A 4.87 4.87 0 0 0 216.952 12.239 A 6.033 6.033 0 0 0 216.905 12.285 A 5.002 5.002 0 0 0 215.659 14.259 A 5.055 5.055 0 0 0 215.41 15.86 L 215.41 43.29 A 4.658 4.658 0 0 0 216.813 46.71 A 5.615 5.615 0 0 0 216.905 46.8 Q 218.4 48.23 220.48 48.23 Z M 532.22 48.23 L 594.62 48.23 Q 596.7 48.23 598.195 46.8 Q 599.69 45.37 599.69 43.29 L 599.69 15.86 A 4.87 4.87 0 0 0 598.241 12.332 A 6.033 6.033 0 0 0 598.195 12.285 A 5.002 5.002 0 0 0 596.221 11.039 A 5.055 5.055 0 0 0 594.62 10.79 L 532.22 10.79 A 4.87 4.87 0 0 0 528.692 12.239 A 6.033 6.033 0 0 0 528.645 12.285 A 5.002 5.002 0 0 0 527.399 14.259 A 5.055 5.055 0 0 0 527.15 15.86 L 527.15 43.29 A 4.658 4.658 0 0 0 528.553 46.71 A 5.615 5.615 0 0 0 528.645 46.8 Q 530.14 48.23 532.22 48.23 Z M 609.57 93.73 L 595.66 93.73 L 565.11 57.33 L 578.89 57.33 L 609.57 93.6 L 609.57 93.73 Z" transform="rotate(90, 40, 55)"/>
</svg>
